<?xml version="1.0" encoding="UTF-8"?>
<svg width="500px" height="508px" viewBox="0 0 500 508" version="1.1" xmlns="http://www.w3.org/2000/svg" xmlns:xlink="http://www.w3.org/1999/xlink">
    <!-- Generator: Sketch 52.6 (67491) - http://www.bohemiancoding.com/sketch -->
    <title>TB_White-1</title>
    <desc>Created with Sketch.</desc>
    <defs>
        <polygon id="path-1" points="0.0100942127 0.138005313 499.961306 0.138005313 499.961306 506.530167 0.0100942127 506.530167"></polygon>
    </defs>
    <g id="Symbols" stroke="none" stroke-width="1" fill="none" fill-rule="evenodd">
        <g id="Header-black" transform="translate(92.000000, 202.000000)">
            <g id="Header">
                <g id="TB_White-1" transform="translate(-92.000000, -204.000000)">
                    <g id="Group-3" transform="translate(0.000000, 2.628890)">
                        <mask id="mask-2" fill="white">
                            <use xlink:href="#path-1"></use>
                        </mask>
                        <g id="Clip-2"></g>
                        <path d="M166.47039,73.0056625 C166.29862,91.1615393 180.947174,106.694293 199.65175,106.764659 C218.130888,106.834002 233.161171,91.7084492 233.176312,73.1307192 C233.193136,54.351774 218.260431,39.1512554 199.777927,39.2013463 C180.328062,39.2541631 166.183042,55.5500349 166.47039,73.0056625 Z M41.7325034,247.886506 C50.0270861,245.533601 58.1223082,243.23692 66.3354643,240.907867 C72.4752692,263.038127 78.5550135,284.953711 84.6837147,307.04308 C93.8218371,304.443128 102.77389,301.894289 111.816117,299.321598 C105.672443,277.172597 99.593035,255.253605 93.4707268,233.182977 C101.71854,230.826664 109.813762,228.51465 118.062921,226.158337 C115.937752,218.506709 113.853634,211.003309 111.721063,203.32442 C86.1842194,210.587589 60.8186406,217.803052 35.3911507,225.037256 C37.5373486,232.768961 39.62214,240.282584 41.7325034,247.886506 Z M213.553163,270.379669 C213.112382,269.718606 212.817968,269.248366 212.498318,268.798571 C194.29004,243.13299 176.080081,217.469113 157.870794,191.80694 C156.933715,190.486519 156.930518,190.481407 155.443136,190.902239 C148.127355,192.970614 140.811575,195.037287 133.498486,197.114181 C132.534825,197.388488 131.238223,197.439601 130.724764,198.097256 C130.16319,198.816247 130.277423,200.116223 130.191958,201.170856 C129.711642,207.106788 129.259926,213.044424 128.798116,218.98206 C128.455081,223.393119 128.115579,227.804178 127.76716,232.215236 C127.360868,237.358916 126.941622,242.502595 126.537349,247.647979 C126.150908,252.566761 125.78146,257.487246 125.395525,262.407732 C125.000841,267.438963 124.596231,272.470194 124.194314,277.501424 C123.891824,281.288904 123.578735,285.076383 123.286003,288.863862 C123.103297,291.22699 122.949529,293.593525 122.76531,296.207108 C131.997813,293.578191 141.005888,291.015722 149.981494,288.461772 C150.14502,283.718479 150.302826,279.148969 150.459287,274.613535 C159.844213,271.952248 169.029273,269.347185 178.282301,266.72338 C180.718371,270.643753 183.066958,274.422713 185.509758,278.355013 C194.835128,275.703948 204.110027,273.064809 213.553163,270.379669 Z M265.873149,188.549333 C264.039367,182.817853 261.324024,177.882034 256.877524,174.057071 C251.554509,169.477851 245.223755,167.721435 238.39502,167.473196 C233.492598,167.294982 228.681023,168.025387 223.924966,169.16998 C216.996972,170.838651 210.464334,173.45053 204.769515,177.8667 C194.804845,185.59159 190.572005,195.553529 193.511104,208.212535 C195.583782,217.145397 200.900067,222.892211 209.757739,225.168447 C214.017497,226.262267 218.358008,226.637096 222.732167,226.717173 C229.791386,226.846659 236.85397,226.911403 243.91319,227.09541 C245.519852,227.1363 247.143338,227.446386 248.711306,227.829734 C250.858008,228.354495 252.20895,229.800995 252.629542,232.026118 C253.1107,234.574957 252.674966,236.938085 250.765478,238.767933 C249.722409,239.768046 248.526245,240.679562 247.252692,241.345736 C243.972073,243.064839 240.440781,243.846869 236.73284,243.795756 C232.95424,243.74294 230.015141,242.204436 228.159489,238.815639 C227.432705,237.488402 226.872476,236.067459 226.149058,234.501695 C217.20895,237.009643 208.218371,239.549963 199.19751,242.182287 C201.487214,249.949771 205.442463,256.214531 212.185397,260.421137 C216.911171,263.366954 222.131561,264.789602 227.609354,265.178061 C234.594549,265.672154 241.47039,264.898643 248.177995,262.801303 C255.889973,260.392173 263.176312,257.107306 269.384253,251.760878 C278.371467,244.020654 281.944818,234.348356 279.264805,222.549753 C276.907806,212.165279 270.592194,205.805109 260.279273,203.559541 C254.764468,202.360087 249.182369,202.172672 243.566622,202.368606 C237.856662,202.566243 232.14502,202.976852 226.430013,202.547502 C224.355653,202.392459 222.313257,202.039778 220.506393,200.889734 C218.095559,199.354638 217.486541,196.424155 219.177322,194.105325 C219.764468,193.299442 220.51817,192.541265 221.34926,192.009689 C225.119448,189.602263 229.224428,188.440292 233.674293,189.278546 C236.852288,189.876569 239.29004,191.513892 240.060565,194.977655 C240.117766,195.23322 240.265814,195.470044 240.410498,195.803983 C248.923284,193.377815 257.350269,190.977204 265.873149,188.549333 Z M270.842867,331.829516 C270.624159,329.922998 270.41218,326.629612 269.841857,323.400969 C268.1107,313.61963 264.382571,304.712324 257.939098,297.122032 C250.363392,288.197688 240.746972,283.023341 229.172275,282.040266 C217.66319,281.062302 206.92463,283.853076 197.175303,290.139985 C187.84825,296.152587 181.714334,304.645877 178.839166,315.473331 C176.670592,323.642905 176.837147,331.863591 178.689435,340.068944 C180.918573,349.942287 185.102624,358.800184 192.160162,366.102539 C199.54576,373.743944 208.55821,378.032332 219.049462,378.959182 C224.369112,379.429423 229.671938,378.988146 234.885599,377.669429 C242.713661,375.687945 249.894011,372.387744 256.001009,366.968054 C266.066622,358.038599 270.585464,346.579047 270.842867,331.829516 Z M443.164536,291.494482 C427.390646,295.983914 411.859017,300.403491 396.187752,304.862256 C395.161507,301.15315 394.172275,297.580346 393.1393,293.840572 C407.000336,289.891235 420.691454,285.989603 434.570996,282.035154 C432.589166,274.901472 430.642665,267.897277 428.677658,260.823227 C414.766151,264.774268 401.069987,268.662269 387.235868,272.591161 C386.18607,268.808793 385.196837,265.242804 384.179004,261.572885 C389.409489,260.082087 394.45996,258.642402 399.510431,257.207828 C404.567631,255.773255 409.639973,254.384683 414.683715,252.900699 C419.693809,251.428643 424.762786,250.149112 429.784657,248.51179 C427.639637,240.797122 425.555182,233.298834 423.452221,225.730691 C399.091521,232.663328 374.969717,239.529518 350.704913,246.434895 C358.956931,276.189522 367.15175,305.744808 375.386945,335.438099 C400.136272,328.396421 424.745962,321.395633 449.502019,314.352251 C447.375505,306.683585 445.294415,299.178481 443.164536,291.494482 Z M262.118102,271.638754 C270.386945,301.439383 278.588493,330.996373 286.813594,360.635144 C295.437416,358.183419 303.867766,355.786216 312.456258,353.343011 C310.196837,345.173437 307.98284,337.158906 305.763795,329.144376 C303.543069,321.129845 301.268506,313.128944 299.118439,305.093968 C299.222746,305.046263 299.327052,304.998557 299.431359,304.949148 C312.821332,318.509448 326.209623,332.068044 339.591184,345.619825 C348.416891,343.106765 357.111373,340.631188 365.963997,338.111313 C357.718708,308.366909 349.525572,278.816734 341.292059,249.116628 C332.632907,251.581982 324.160498,253.992816 315.632571,256.420687 C320.040377,272.325373 324.390983,288.034126 328.743271,303.742879 C328.152759,303.509463 327.750673,303.156782 327.380552,302.773434 C323.426985,298.66735 319.480148,294.554451 315.528264,290.446664 C307.353634,281.946558 299.163863,273.45838 291.016151,264.931015 C290.171602,264.045054 289.448183,263.818453 288.243607,264.177948 C282.399058,265.922608 276.522544,267.5463 270.656124,269.214291 C267.865074,270.006543 265.075707,270.798796 262.118102,271.638754 Z M110.052153,410.811149 C110.623486,410.691885 111.004038,410.635661 111.371131,410.531731 C126.968371,406.09682 142.552826,401.615906 158.166555,397.242331 C163.620626,395.71405 168.739906,393.570708 173.230148,390.031979 C182.510094,382.717697 186.663863,372.014619 182.992934,360.129124 C179.984859,350.393786 173.711306,344.449335 163.474933,343.232844 C163.069314,343.185138 162.678331,343.011354 162.165209,342.863126 C162.965848,341.917534 163.667396,341.113355 164.340511,340.287027 C168.059724,335.720925 169.458277,330.546578 168.287349,324.709464 C165.909152,312.854637 157.607335,306.146898 145.405114,306.281495 C141.540209,306.32409 137.738223,307.036265 134.000505,308.104529 C118.839838,312.438918 103.667564,316.730712 88.5003365,321.039545 C87.4954576,321.325778 86.4962988,321.630753 85.4046097,321.954469 C93.6335801,351.6205 101.817799,381.124673 110.052153,410.811149 Z M363.314266,131.750946 C328.760094,141.579991 294.348923,151.368657 259.796433,161.197362 C261.9179,168.850864 263.998991,176.355456 266.128869,184.034344 C274.384253,181.693365 282.479812,179.398388 290.725101,177.062521 C296.859017,199.168927 302.950875,221.127106 309.07638,243.204548 C318.236878,240.594374 327.187079,238.043831 336.211306,235.472843 C330.070659,213.317027 323.993943,191.392924 317.881898,169.338823 C326.120458,166.98711 334.216016,164.675947 342.456258,162.324235 C340.858008,156.525797 339.305182,150.890409 337.752355,145.255022 C338.472409,145.533418 338.921602,145.941982 339.347241,146.37525 C352.540377,159.832983 365.728466,173.29719 378.936743,186.73993 C379.602961,187.41803 379.979812,188.169393 380.225437,189.05876 C382.934051,198.886101 385.657806,208.710035 388.381561,218.533969 C388.544751,219.118362 388.748318,219.692532 388.995626,220.469451 C398.060229,217.886537 407.007066,215.337698 415.984186,212.778636 C415.86642,212.214689 415.814266,211.882454 415.726783,211.562145 C412.952557,201.516721 410.186743,191.469594 407.380552,181.434393 C407.092867,180.40702 407.104643,179.469947 407.355316,178.44087 C412.424293,157.753873 417.468035,137.060062 422.508412,116.365569 C422.609354,115.952916 422.616083,115.516751 422.695155,114.856881 C412.681696,117.707798 402.876851,120.499765 393.162853,123.265664 C391.103634,135.640481 389.088156,147.759052 387.003701,160.287378 C378.97039,150.61065 371.196164,141.24469 363.314266,131.750946 Z M0,253.157969 C0.182200538,116.23966 108.868943,-0.26135821 252.498318,0.139027575 C388.664199,1.90805124 501.268506,113.25636 499.951211,256.296312 C498.68607,393.494038 388.509421,507.943037 246.961642,506.516982 C113.31393,505.171004 0.545760431,395.915094 0,253.157969 Z" id="Fill-1" fill="#FFFFFE" mask="url(#mask-2)"></path>
                    </g>
                    <path d="M406.253392,2.62889005 C408.767457,2.62889005 410.978536,2.62889005 413.265362,2.62889005 C414.345653,5.89773602 415.416926,9.13385262 416.488199,12.3699692 C416.609033,12.3666219 416.73167,12.3634605 416.852504,12.3601132 C417.898529,9.16974335 418.944553,5.97937349 420.024844,2.6824472 C422.273796,2.6824472 424.531766,2.6824472 427.020582,2.6824472 C427.139613,8.37363858 427.045831,14.0865876 427.081901,19.9215278 C425.355961,19.9215278 423.777907,19.9215278 422.046556,19.9215278 C422.046556,16.9922491 422.046556,14.1159696 422.046556,11.2396901 C421.929329,11.2151431 421.813906,11.1905961 421.698483,11.166049 C420.500965,14.0082974 419.87335,17.0744444 418.729938,19.9758288 C417.323215,19.9758288 415.954366,19.9758288 414.547644,19.9758288 C413.561134,16.9197238 412.590857,13.911783 411.618775,10.9040281 C411.499745,10.9309926 411.380715,10.9581431 411.261684,10.9852937 C411.261684,13.9225688 411.261684,16.8596579 411.261684,19.9191103 C409.602473,19.9191103 408.07131,19.9191103 406.325531,19.9191103 C406.184859,14.2266172 406.291265,8.51255245 406.253392,2.62889005" id="Fill-4" fill="#FFFFFE"></path>
                    <path d="M402.074857,19.9758288 C400.155914,19.9758288 398.447983,19.9758288 396.539861,19.9758288 C396.539861,15.5211503 396.539861,11.1350427 396.539861,6.56414876 C395.055566,6.56414876 393.760641,6.56414876 392.361111,6.56414876 C392.361111,5.16657326 392.361111,3.95677361 392.361111,2.62889005 C396.990741,2.62889005 401.578889,2.62889005 406.25,2.62889005 C406.25,3.92445001 406.25,5.13686544 406.25,6.54041987 C404.872113,6.54041987 403.575383,6.54041987 402.074857,6.54041987 C402.074857,11.1105665 402.074857,15.4966741 402.074857,19.9758288" id="Fill-5" fill="#FFFFFE"></path>
                    <path d="M364.122424,134.015342 C372.01863,143.510541 379.80697,152.877937 387.854864,162.556149 C389.943103,150.025901 391.96224,137.905473 394.025197,125.528758 C403.756829,122.762435 413.579474,119.97004 423.611111,117.118686 C423.531896,117.778657 423.525155,118.214889 423.424029,118.627605 C418.374502,139.325271 413.321604,160.022256 408.243425,180.712424 C407.992297,181.741659 407.980499,182.678875 408.268706,183.706406 C411.079992,193.743146 413.850827,203.791814 416.630089,213.838778 C416.717731,214.159135 416.76998,214.491421 416.887959,215.055456 C407.894542,217.614909 398.931463,220.164139 389.850405,222.747449 C389.602648,221.970411 389.398711,221.396153 389.235225,220.811671 C386.506526,210.986231 383.777826,201.160791 381.064295,191.331942 C380.818223,190.442438 380.440689,189.690961 379.773261,189.012757 C366.541006,175.567956 353.328976,162.101684 340.111889,148.641888 C339.685477,148.208553 339.235469,147.799926 338.514108,147.521488 C340.069754,153.157739 341.625399,158.79399 343.226551,164.593318 C334.971349,166.945391 326.861094,169.256908 318.607578,171.608982 C324.73072,193.666464 330.818467,215.593929 336.970261,237.753142 C327.929652,240.324524 318.963202,242.875458 309.786075,245.486033 C303.64945,223.405205 297.546533,201.44366 291.401482,179.333863 C283.141224,181.670089 275.030969,183.965418 266.760599,186.306756 C264.626853,178.626691 262.541985,171.120947 260.416667,163.466272 C295.031882,153.63606 329.505523,143.845894 364.122424,134.015342" id="Fill-6" fill="#1A1919"></path>
                    <path d="M119.25649,340.449339 C120.517481,345.029712 121.706378,349.350531 122.928181,353.788404 C128.346177,352.193755 133.572529,350.700893 138.764486,349.090977 C139.897328,348.739815 141.000406,348.101955 141.957642,347.374185 C145.052081,345.022927 145.148648,339.465407 142.177729,336.930934 C141.685304,336.511914 141.061257,336.206556 140.450273,335.989412 C138.84551,335.421107 137.170637,335.468607 135.56637,335.879144 C131.840939,336.835933 128.144611,337.911473 124.439518,338.949691 C122.75522,339.4213 121.078363,339.920051 119.25649,340.449339 Z M127.47228,370.438909 C128.960634,375.862411 130.42931,381.212965 131.909561,386.607627 C132.311041,386.570306 132.58801,386.590663 132.839679,386.517716 C138.015266,385.019764 143.192012,383.525206 148.35867,381.996718 C150.10911,381.477609 151.768109,380.731178 153.220746,379.565727 C157.592547,376.054108 156.534941,367.763632 151.420865,365.498892 C151.120747,365.364874 150.804259,365.268177 150.490251,365.17148 C148.516418,364.565853 146.557797,364.845765 144.635554,365.385231 C139.236904,366.89845 133.850489,368.45917 128.461595,370.009711 C128.155359,370.097926 127.870453,370.264177 127.47228,370.438909 Z M111.030778,415.486033 C102.937515,385.927357 94.8935273,356.550199 86.8055556,327.011881 C87.8785392,326.689558 88.860578,326.385896 89.8482389,326.100895 C104.755585,321.810612 119.667891,317.537294 134.568788,313.221564 C138.242463,312.1579 141.979304,311.44879 145.777986,311.406379 C157.771129,311.272361 165.930699,317.951224 168.268147,329.755015 C169.419012,335.567 168.044423,340.719072 164.388936,345.265517 C163.727354,346.088287 163.037827,346.889005 162.250906,347.830526 C162.755237,347.978116 163.13952,348.151152 163.538189,348.198652 C173.599167,349.409906 179.765227,355.328767 182.721761,365.022194 C186.32979,376.856521 182.247194,387.513523 173.126254,394.796317 C168.71295,398.319811 163.681386,400.453926 158.320767,401.975628 C142.974571,406.330376 127.657146,410.791998 112.327155,415.207818 C111.966352,415.3113 111.592321,415.367282 111.030778,415.486033 Z" id="Fill-7" fill="#1A1919"></path>
                    <path d="M260.416667,274.846338 C263.383407,274.010131 266.18139,273.221417 268.981061,272.432703 C274.865602,270.772163 280.760268,269.155723 286.622871,267.418856 C287.831168,267.060967 288.556821,267.286556 289.403979,268.168559 C297.576858,276.657836 305.791927,285.108101 313.991808,293.57024 C317.955899,297.65968 321.914928,301.754208 325.880707,305.841952 C326.251971,306.223588 326.655299,306.574693 327.247635,306.807067 C322.881903,291.168478 318.517858,275.52989 314.096437,259.696243 C322.650706,257.279216 331.149286,254.879151 339.835186,252.424808 C348.094131,281.992257 356.312575,311.410443 364.583333,341.021991 C355.703364,343.530611 346.982025,345.99513 338.129057,348.496965 C324.706161,335.005714 311.276515,321.507679 297.845181,308.007947 C297.740552,308.057136 297.635923,308.104628 297.531294,308.152121 C299.688003,316.151208 301.969591,324.116372 304.197178,332.095105 C306.423077,340.073838 308.643913,348.052571 310.910313,356.185655 C302.295292,358.617947 293.838901,361.004443 285.18844,363.445217 C276.937933,333.93883 268.711051,304.513859 260.416667,274.846338" id="Fill-8" fill="#1A1919"></path>
                    <path d="M441.680207,294.689959 C443.776134,302.465922 445.82405,310.060848 447.916667,317.821294 C423.555236,324.948973 399.337839,332.033548 374.983031,339.159502 C366.879109,309.110836 358.814921,279.201827 350.694444,249.091091 C374.572454,242.103069 398.309742,235.154703 422.282118,228.139094 C424.351556,235.797814 426.402784,243.385844 428.513611,251.192842 C423.571792,252.84976 418.583617,254.144604 413.653387,255.634279 C408.690045,257.136023 403.69856,258.541213 398.721974,259.992956 C393.75201,261.444699 388.782047,262.901615 383.634939,264.410255 C384.636547,268.124096 385.610011,271.732764 386.643075,275.5604 C400.25667,271.584486 413.734509,267.649952 427.424259,263.651625 C429.357942,270.810338 431.273414,277.898361 433.223653,285.117421 C419.565359,289.119197 406.092486,293.067524 392.452403,297.064128 C393.468911,300.84866 394.442375,304.464224 395.452261,308.217721 C410.873717,303.705593 426.157762,299.233121 441.680207,294.689959" id="Fill-9" fill="#1A1919"></path>
                    <path d="M243.04763,341.557324 C242.786407,334.128398 240.974699,327.114553 237.228256,320.696111 C236.131119,318.814638 234.749165,317.023326 233.196994,315.504198 C223.921049,306.421754 208.851009,310.851551 205.638808,323.242734 C205.16018,325.088482 204.870307,327.038001 204.856824,328.94329 C204.80458,336.640998 206.82021,343.824958 210.522836,350.530895 C211.788504,352.824046 213.414828,354.846715 215.396752,356.561475 C224.406418,364.349343 238.064169,360.582995 241.910046,349.258434 C242.759442,346.759443 243.04763,344.185602 243.04763,341.557324 Z M270.833333,337.022056 C270.575481,351.748919 266.048739,363.19086 255.96553,372.106591 C249.847855,377.517952 242.654953,380.813081 234.813207,382.79152 C229.590431,384.108211 224.278335,384.548809 218.949385,384.079291 C208.439793,383.153865 199.411588,378.872068 192.013078,371.242407 C184.943204,363.951274 180.751838,355.106991 178.518803,345.248821 C176.663276,337.056079 176.496431,328.848026 178.668795,320.691007 C181.54899,309.880193 187.693629,301.399956 197.036987,295.396595 C206.803357,289.119348 217.56069,286.332863 229.089894,287.309324 C240.684826,288.290888 250.318057,293.457283 257.907007,302.367911 C264.361744,309.946538 268.09639,318.840155 269.830574,328.606462 C270.401894,331.830143 270.614243,335.118468 270.833333,337.022056 Z" id="Fill-10" fill="#1A1919"></path>
                    <path d="M267.108072,193.573744 C258.65667,195.983439 250.300357,198.366078 241.858964,200.774083 C241.715494,200.442644 241.568687,200.207593 241.511966,199.953941 C240.747903,196.516109 238.330595,194.891044 235.179253,194.297498 C230.766706,193.465519 226.696153,194.618791 222.957583,197.008194 C222.133463,197.53579 221.386083,198.288292 220.80386,199.088141 C219.12726,201.389612 219.731169,204.298156 222.121785,205.82176 C223.913496,206.963194 225.938763,207.313234 227.995727,207.467117 C233.662805,207.893252 239.326546,207.485718 244.988619,207.28956 C250.557269,207.095093 256.092555,207.281105 261.561109,208.471579 C271.78754,210.700336 278.050187,217.012891 280.387418,227.319623 C283.044956,239.029896 279.501573,248.629783 270.58973,256.31206 C264.433852,261.618462 257.20862,264.878738 249.561318,267.269832 C242.909968,269.35147 236.091791,270.119191 229.165177,269.628796 C223.733324,269.243245 218.556715,267.831248 213.870574,264.907485 C207.184189,260.732371 203.262111,254.514512 200.99161,246.805179 C209.936818,244.192562 218.851997,241.67126 227.717128,239.182087 C228.43448,240.736129 228.99001,242.146435 229.710698,243.463735 C231.550788,246.827162 234.465238,248.354148 238.212149,248.406569 C241.888993,248.457299 245.39067,247.681124 248.643776,245.974891 C249.906648,245.313704 251.092781,244.409012 252.127102,243.416386 C254.020576,241.600237 254.452655,239.2548 253.975533,236.725043 C253.558468,234.516579 252.218856,233.080908 250.090157,232.560075 C248.535339,232.179597 246.925468,231.871833 245.332281,231.831248 C238.332263,231.648619 231.32891,231.58436 224.328893,231.455843 C219.991418,231.376366 215.687308,231.004342 211.463275,229.918711 C202.679889,227.659516 197.408188,221.955726 195.352893,213.089739 C192.438443,200.525503 196.635784,190.638144 206.516886,182.971086 C212.163944,178.587977 218.641796,175.995652 225.511689,174.339473 C230.227859,173.20345 234.999081,172.478512 239.860389,172.655392 C246.631855,172.901773 252.909515,174.645039 258.187889,179.189978 C262.597099,182.986305 265.289669,187.885173 267.108072,193.573744" id="Fill-11" fill="#1A1919"></path>
                    <path d="M150.879937,226.649698 C150.752796,226.686658 150.625821,226.723619 150.49868,226.76058 C150.21579,236.341797 149.932899,245.921334 149.643317,255.736076 C155.239391,254.155167 160.565958,252.651539 166.056136,251.10087 C160.937345,242.853597 155.908725,234.752488 150.879937,226.649698 Z M211.805556,272.059258 C202.415474,274.706987 193.192685,277.309355 183.919707,279.923483 C181.490632,276.045972 179.155241,272.319663 176.732857,268.453911 C167.531816,271.041159 158.39836,273.609927 149.066161,276.234135 C148.91058,280.706378 148.75366,285.212221 148.591053,289.889428 C139.665875,292.407795 130.70841,294.934561 121.527778,297.526849 C121.710962,294.949682 121.863867,292.616118 122.045545,290.285915 C122.336633,286.551206 122.647963,282.816497 122.948753,279.081788 C123.348413,274.120656 123.750749,269.159524 124.143216,264.198392 C124.526983,259.346463 124.894355,254.494533 125.278624,249.644283 C125.680626,244.570589 126.097517,239.498575 126.501526,234.426562 C126.847987,230.076961 127.185582,225.727361 127.52669,221.37776 C127.985905,215.522852 128.435083,209.667943 128.912701,203.814715 C128.997685,202.774776 128.884094,201.492912 129.442514,200.783939 C129.953088,200.135447 131.242405,200.085046 132.200652,199.814561 C139.472653,197.766603 146.747331,195.728725 154.02201,193.689168 C155.501035,193.2742 155.504214,193.27924 156.436028,194.581264 C174.543009,219.885892 192.65066,245.192201 210.756637,270.500189 C211.074491,270.943717 211.367251,271.407406 211.805556,272.059258 Z" id="Fill-12" fill="#1A1919"></path>
                    <path d="M41.1143202,252.040803 C38.9870691,244.41027 36.8855946,236.870352 34.7222222,229.11159 C60.3531903,221.852068 85.9217517,214.611354 111.662949,207.322768 C113.812585,215.028529 115.913381,222.558188 118.055556,230.236593 C109.740385,232.601152 101.580382,234.921258 93.2665679,237.285817 C99.4378686,259.433683 105.565926,281.429382 111.758763,303.655896 C102.644177,306.237591 93.6204879,308.79535 84.4092395,311.4044 C78.2314947,289.237728 72.1030985,267.245447 65.9141612,245.037741 C57.635281,247.374945 49.4752786,249.679663 41.1143202,252.040803" id="Fill-13" fill="#1A1919"></path>
                    <path d="M166.670919,77.2427795 C166.386749,60.2122301 180.375283,44.3131942 199.609975,44.2616635 C217.888007,44.2127925 232.655512,59.0431491 232.638875,77.3647908 C232.623901,95.4901172 217.759898,110.247334 199.485194,110.179679 C180.987546,110.111027 166.501049,94.9565256 166.670919,77.2427795" id="Fill-14" fill="#1A1919"></path>
                    <path d="M128.472222,368.806742 C128.860498,368.639724 129.138321,368.480814 129.436945,368.396495 C134.691888,366.914416 139.944413,365.422609 145.208869,363.976204 C147.083331,363.460558 148.993266,363.193005 150.918036,363.771891 C151.224239,363.864319 151.53286,363.956746 151.825518,364.084847 C156.812473,366.249589 157.84379,374.174006 153.580659,377.530573 C152.16413,378.644564 150.546369,379.358037 148.839439,379.854225 C143.801208,381.315223 138.753142,382.743791 133.706203,384.175602 C133.46079,384.245328 133.190706,384.225869 132.799206,384.261543 C131.355749,379.105078 129.92358,373.990773 128.472222,368.806742" id="Fill-15" fill="#FFFFFE"></path>
                    <path d="M118.055556,340.33826 C119.82066,339.834379 121.445268,339.359567 123.077085,338.910595 C126.66673,337.922211 130.247883,336.898297 133.857233,335.987434 C135.411512,335.596603 137.034197,335.551382 138.588957,336.092409 C139.180903,336.29913 139.785505,336.589831 140.262587,336.988738 C143.140935,339.401557 143.047377,344.692317 140.049358,346.930715 C139.121949,347.623553 138.053242,348.230795 136.955698,348.565101 C131.925518,350.097742 126.862016,351.518948 121.612839,353.037053 C120.429107,348.812197 119.277255,344.698777 118.055556,340.33826" id="Fill-16" fill="#FFFFFE"></path>
                    <path d="M243.055556,337.934713 C243.055556,340.489065 242.767348,342.990511 241.917893,345.419211 C238.071749,356.425242 224.413051,360.085653 215.40276,352.516837 C213.420699,350.850308 211.794262,348.884532 210.528506,346.655881 C206.825624,340.138565 204.809854,333.15667 204.862102,325.675479 C204.875585,323.823781 205.165479,321.929097 205.64414,320.135264 C208.856563,308.092613 223.927648,303.787414 233.204237,312.614393 C234.756515,314.090792 236.138565,315.831719 237.235777,317.660271 C240.982481,323.898179 242.794314,330.714743 243.055556,337.934713" id="Fill-17" fill="#FFFFFE"></path>
                    <path d="M150.613624,228.139094 C155.932963,236.837512 161.252125,245.534127 166.666667,254.387649 C160.85928,256.052306 155.224957,257.666464 149.305556,259.363584 C149.611869,248.82737 149.911104,238.54365 150.210339,228.258127 C150.344826,228.218449 150.479137,228.178772 150.613624,228.139094" id="Fill-18" fill="#FFFFFE"></path>
                </g>
            </g>
        </g>
    </g>
</svg>